<svg width="318" height="49" viewBox="0 0 318 49" fill="none" xmlns="http://www.w3.org/2000/svg" xmlns:xlink="http://www.w3.org/1999/xlink">
<g opacity="0.87">
<path d="M36.2973 1.12914e-05C35.4209 1.12914e-05 34.5641 0.259909 33.8354 0.746838C33.1066 1.23377 32.5386 1.92586 32.2032 2.73559C31.8678 3.54532 31.7801 4.43633 31.9511 5.29594C32.1221 6.15555 32.5441 6.94515 33.1638 7.56489C33.7836 8.18464 34.5732 8.60669 35.4328 8.77767C36.2924 8.94866 37.1834 8.8609 37.9931 8.5255C38.8029 8.1901 39.495 7.62211 39.9819 6.89337C40.4688 6.16463 40.7287 5.30787 40.7287 4.43142C40.73 3.84911 40.6163 3.27227 40.3941 2.73404C40.1719 2.1958 39.8455 1.70676 39.4337 1.29501C39.022 0.883249 38.5329 0.556884 37.9947 0.334651C37.4565 0.112418 36.8796 -0.00130467 36.2973 1.12914e-05V1.12914e-05Z" fill="white"/>
<path d="M160.596 25.2011C160.596 23.1551 159.309 21.9874 157.053 21.9874H135.974V44.7233C135.984 45.0234 135.932 45.3224 135.821 45.6016C135.711 45.8809 135.544 46.1346 135.332 46.3469C135.12 46.5593 134.866 46.7258 134.587 46.8362C134.307 46.9466 134.009 46.9986 133.708 46.9889H127.91V15.1906H155.995C164.519 15.1906 168.661 18.5041 168.661 25.3109V44.7233C168.67 45.0234 168.618 45.3224 168.508 45.6016C168.398 45.8809 168.231 46.1346 168.019 46.3469C167.806 46.5593 167.553 46.7258 167.273 46.8362C166.994 46.9466 166.695 46.9986 166.395 46.9889H160.596V25.2011" fill="white"/>
<path d="M114.066 25.2011C114.066 23.1551 112.769 21.9874 110.523 21.9874H89.4343V44.7233C89.444 45.0234 89.392 45.3224 89.2816 45.6016C89.1712 45.8809 89.0047 46.1346 88.7923 46.3469C88.58 46.5593 88.3263 46.7258 88.047 46.8362C87.7678 46.9466 87.4688 46.9986 87.1687 46.9889H81.3899V15.1906H109.465C117.989 15.1906 122.141 18.5041 122.141 25.3109V44.7233C122.149 45.0239 122.096 45.3231 121.984 45.6024C121.873 45.8817 121.705 46.1352 121.492 46.3474C121.279 46.5596 121.025 46.726 120.745 46.8363C120.465 46.9466 120.166 46.9985 119.865 46.9889H114.076V25.2011" fill="white"/>
<path d="M297.441 44.7233V25.2011C297.441 23.1551 298.728 21.9874 300.984 21.9874H315.735V15.1906H302.042C293.518 15.1906 289.376 18.5041 289.376 25.3109V46.9989H295.165C295.467 47.0086 295.767 46.9563 296.047 46.8454C296.328 46.7345 296.583 46.5672 296.796 46.354C297.009 46.1407 297.176 45.8859 297.287 45.6055C297.398 45.325 297.451 45.0247 297.441 44.7233" fill="white"/>
<path d="M237.258 9.28201C237.559 9.29312 237.859 9.2422 238.139 9.1324C238.419 9.02261 238.674 8.85629 238.888 8.64379C239.101 8.4313 239.269 8.17717 239.38 7.8972C239.491 7.61724 239.543 7.31742 239.533 7.0164V2.49517H231.399C223.864 2.49517 220.201 5.7788 220.201 12.5557V46.9989H225.999C226.3 47.0072 226.599 46.9539 226.878 46.8424C227.158 46.7308 227.411 46.5634 227.624 46.3502C227.836 46.1371 228.002 45.8828 228.112 45.603C228.223 45.3233 228.275 45.0239 228.265 44.7233V21.9874H237.248C237.549 21.9985 237.849 21.9476 238.129 21.8378C238.409 21.728 238.664 21.5616 238.878 21.3492C239.091 21.1367 239.259 20.8825 239.37 20.6026C239.481 20.3226 239.533 20.0228 239.523 19.7218V15.1905H228.265V11.9269C228.265 10.9288 228.794 9.28201 232.327 9.28201H237.258Z" fill="white"/>
<path d="M251.57 34.533H276.012C278.707 34.533 280.703 34.014 282.001 32.9761C283.298 31.9381 283.797 30.4011 283.797 28.1554V22.0772C283.797 17.3863 281.332 15.1906 276.062 15.1906H255.303C247.418 15.1906 243.595 17.9452 243.595 23.6142V37.7368C243.595 43.9647 247.418 46.9989 255.303 46.9989H280.943C281.247 47.0032 281.548 46.9455 281.829 46.8294C282.11 46.7133 282.364 46.5412 282.576 46.3235C282.788 46.1059 282.953 45.8473 283.062 45.5636C283.171 45.2799 283.221 44.977 283.208 44.6734V44.2741V40.202H255.472C252.987 40.202 251.57 39.1441 251.57 37.2977V34.533ZM251.57 24.9317C251.57 23.0852 252.987 22.0273 255.462 22.0273H272.23C274.435 22.0273 275.693 23.0254 275.693 24.7919C275.693 26.5585 274.435 27.7262 272.23 27.7262H251.57V24.9317Z" fill="white"/>
<path d="M182.394 34.533H206.797C209.491 34.533 211.498 34.014 212.735 32.9761C213.973 31.9381 214.532 30.4011 214.532 28.1554V22.0772C214.532 17.3863 212.076 15.1906 206.797 15.1906H186.037C178.162 15.1906 174.33 17.9452 174.33 23.6142V37.7368C174.33 43.9647 178.162 46.9989 186.037 46.9989H211.677C211.982 47.0045 212.284 46.9479 212.566 46.8324C212.848 46.7169 213.104 46.545 213.317 46.3272C213.53 46.1094 213.696 45.8504 213.806 45.566C213.915 45.2816 213.965 44.9778 213.953 44.6734V40.202H186.296C183.821 40.202 182.394 39.1441 182.394 37.2977V34.533V34.533ZM182.394 24.9317C182.394 23.0852 183.821 22.0273 186.296 22.0273H203.054C205.26 22.0273 206.517 23.0254 206.517 24.7919C206.517 26.5585 205.26 27.7262 203.054 27.7262H182.394V24.9317Z" fill="white"/>
<path d="M43.8627 34.533H68.2653C70.9601 34.533 72.9662 34.014 74.2537 32.9761C75.5412 31.9381 76.0402 30.4011 76.0402 28.1554V22.0772C76.0402 17.3863 73.585 15.1906 68.3053 15.1906H47.5056C39.6309 15.1906 35.8083 17.9452 35.8083 23.6142V37.7368C35.8083 43.9647 39.6309 46.9989 47.5056 46.9989H73.1558C73.458 47.0005 73.7573 46.9408 74.0358 46.8235C74.3142 46.7061 74.566 46.5336 74.7759 46.3162C74.9857 46.0989 75.1494 45.8412 75.2569 45.5589C75.3645 45.2765 75.4136 44.9753 75.4015 44.6734V40.202H47.7651C45.2899 40.202 43.8627 39.1441 43.8627 37.2977V34.533V34.533ZM43.8627 24.9317C43.8627 23.0852 45.2899 22.0273 47.7651 22.0273H64.5226C66.7283 22.0273 67.9959 23.0254 67.9959 24.7919C67.9959 26.5585 66.7283 27.7262 64.5226 27.7262H43.8627V24.9317Z" fill="white"/>
<path d="M3.99997 0.42918C3.26107 0.427753 2.53628 0.631416 1.90627 1.0175C1.27626 1.40358 0.765758 1.95693 0.431594 2.61594C0.09743 3.27496 -0.0472848 4.01379 0.0135601 4.75017C0.074405 5.48656 0.338422 6.19162 0.77622 6.78685L17.3042 24.752V46.5098H25.2887V22.187L7.26364 2.10593C6.88934 1.58998 6.39888 1.16935 5.83191 0.878063C5.26494 0.586776 4.63738 0.433003 3.99997 0.42918V0.42918Z" fill="white"/>
</g>
<rect x="331.735" y="2" width="170.667" height="47" fill="url(#pattern0)"/>
<defs>
<pattern id="pattern0" patternContentUnits="objectBoundingBox" width="1" height="1">
<use xlink:href="#image0_36_716" transform="scale(0.00195312 0.0070922)"/>
</pattern>
</defs>
</svg>
